<svg width="144" height="140" viewBox="0 0 144 140" fill="none" xmlns="http://www.w3.org/2000/svg">
<path d="M68.791 114.895C92.9761 114.895 112.582 94.7714 112.582 69.9475C112.582 45.1237 92.9761 25 68.791 25C44.6059 25 25 45.1237 25 69.9475C25 94.7714 44.6059 114.895 68.791 114.895Z" fill="#263238"/>
<path d="M43.9212 66.2808C43.4699 66.2838 43.0281 66.1482 42.6525 65.8915C42.277 65.6347 41.9848 65.2685 41.8136 64.8399C41.6424 64.4114 41.6 63.9401 41.6919 63.4866C41.7838 63.0331 42.0057 62.6182 42.3292 62.2952C49.3528 55.0978 58.8721 51.0553 68.7969 51.0553C78.7218 51.0553 88.2411 55.0978 95.2647 62.2952C95.4751 62.5111 95.6419 62.7674 95.7558 63.0495C95.8696 63.3316 95.9282 63.6339 95.9282 63.9393C95.9282 64.2446 95.8696 64.5469 95.7558 64.829C95.6419 65.1111 95.4751 65.3674 95.2647 65.5833C95.0544 65.7992 94.8047 65.9705 94.5298 66.0873C94.255 66.2042 93.9604 66.2643 93.663 66.2643C93.3655 66.2643 93.0709 66.2042 92.7961 66.0873C92.5213 65.9705 92.2715 65.7992 92.0612 65.5833C85.8859 59.2566 77.5172 55.7033 68.7921 55.7033C60.0669 55.7033 51.6983 59.2566 45.523 65.5833C45.3141 65.8023 45.065 65.9768 44.79 66.0965C44.5151 66.2162 44.2198 66.2788 43.9212 66.2808Z" fill="white"/>
<path d="M51.6082 74.1723C51.1583 74.1725 50.7184 74.0354 50.3444 73.7786C49.9704 73.5218 49.6792 73.1568 49.5076 72.7298C49.336 72.3029 49.2918 71.8333 49.3806 71.3805C49.4695 70.9277 49.6873 70.5122 50.0065 70.1867C54.9928 65.0818 61.748 62.215 68.7907 62.215C75.8334 62.215 82.5886 65.0818 87.5749 70.1867C87.9453 70.6304 88.1392 71.201 88.1177 71.7849C88.0963 72.3687 87.8612 72.9228 87.4593 73.3366C87.0574 73.7504 86.5183 73.9934 85.9495 74.0172C85.3808 74.0409 84.8242 73.8437 84.3908 73.4649C80.2542 69.2282 74.649 66.8489 68.8053 66.8489C62.9615 66.8489 57.3564 69.2282 53.2197 73.4649C53.0108 73.6874 52.7606 73.8646 52.4838 73.9861C52.207 74.1076 51.9093 74.1709 51.6082 74.1723Z" fill="white"/>
<path d="M59.2962 82.0539C58.8441 82.059 58.401 81.9248 58.0239 81.6688C57.6468 81.4128 57.3531 81.0467 57.1807 80.6177C57.0083 80.1887 56.9651 79.7166 57.0567 79.2621C57.1482 78.8077 57.3704 78.3919 57.6945 78.0683C60.6409 75.051 64.633 73.3564 68.7951 73.3564C72.9572 73.3564 76.9494 75.051 79.8958 78.0683C80.1061 78.2842 80.273 78.5405 80.3868 78.8226C80.5006 79.1047 80.5592 79.407 80.5592 79.7124C80.5592 80.0177 80.5006 80.32 80.3868 80.6021C80.273 80.8842 80.1061 81.1405 79.8958 81.3564C79.6854 81.5723 79.4357 81.7436 79.1609 81.8604C78.886 81.9773 78.5915 82.0374 78.294 82.0374C77.9965 82.0374 77.702 81.9773 77.4271 81.8604C77.1523 81.7436 76.9026 81.5723 76.6923 81.3564C75.6555 80.2914 74.4244 79.4466 73.0694 78.8701C71.7143 78.2937 70.2619 77.997 68.7951 77.997C67.3283 77.997 65.8759 78.2937 64.5209 78.8701C63.1658 79.4466 61.9348 80.2914 60.898 81.3564C60.4736 81.7952 59.8985 82.0456 59.2962 82.0539Z" fill="white"/>
<path d="M71.0822 87.1255C71.5361 87.5907 71.8454 88.1837 71.9709 88.8294C72.0963 89.4751 72.0324 90.1445 71.7871 90.7529C71.5419 91.3612 71.1263 91.8813 70.593 92.2472C70.0597 92.6131 69.4326 92.8084 68.7912 92.8084C68.1497 92.8084 67.5226 92.6131 66.9893 92.2472C66.456 91.8813 66.0404 91.3612 65.7952 90.7529C65.5499 90.1445 65.486 89.4751 65.6115 88.8294C65.737 88.1837 66.0463 87.5907 66.5002 87.1255C67.1081 86.5024 67.9321 86.1525 68.7912 86.1525C69.6503 86.1525 70.4742 86.5024 71.0822 87.1255Z" fill="white"/>
<path d="M96.3496 99.0012C95.8178 98.4617 94.9348 98.4416 94.3774 98.9563C93.8199 99.4709 93.7991 100.325 94.3309 100.865L98.3184 104.982C98.8886 105.561 99.8504 105.535 100.388 104.928L109.054 94.3733C109.555 93.8069 109.486 92.9546 108.901 92.4698C108.316 91.985 107.435 92.0511 106.934 92.6175L99.7194 101.487C99.5076 101.748 99.1178 101.793 98.8487 101.588C98.8237 101.569 98.8002 101.548 98.7785 101.525L96.3496 99.0012ZM86.3594 98C86.3594 89.75 93.3344 83 101.859 83C110.384 83 117.359 89.75 117.359 98C117.359 106.25 110.384 113 101.859 113C93.3344 113 86.3594 106.25 86.3594 98Z" fill="#3E8D61"/>
<path d="M96.3496 99.0012C95.8178 98.4617 94.9348 98.4416 94.3774 98.9563C93.8199 99.4709 93.7991 100.325 94.3309 100.865L98.3184 104.982C98.8886 105.561 99.8504 105.535 100.388 104.928L109.054 94.3733C109.555 93.8069 109.486 92.9546 108.901 92.4698C108.316 91.985 107.435 92.0511 106.934 92.6175L99.7194 101.487C99.5076 101.748 99.1178 101.793 98.8487 101.588C98.8237 101.569 98.8002 101.548 98.7785 101.525L96.3496 99.0012Z" fill="white"/>
</svg>
